<svg width="24" height="24" viewBox="0 0 24 24" fill="none" xmlns="http://www.w3.org/2000/svg">
<g clip-path="url(#clip0_4005_921)">
<path d="M1.34375 12.5C1.34375 12.0685 1.69353 11.7187 2.125 11.7187H20.875C21.3065 11.7187 21.6562 12.0685 21.6562 12.5C21.6562 12.9315 21.3065 13.2812 20.875 13.2812H2.125C1.69353 13.2812 1.34375 12.9315 1.34375 12.5Z" fill="#0096D9"/>
<path d="M14.0726 5.69757C14.3777 5.39248 14.8724 5.39248 15.1775 5.69757L21.4275 11.9476C21.7326 12.2527 21.7326 12.7473 21.4275 13.0524L15.1775 19.3024C14.8724 19.6075 14.3777 19.6075 14.0726 19.3024C13.7675 18.9973 13.7675 18.5027 14.0726 18.1976L19.7702 12.5L14.0726 6.80243C13.7675 6.49733 13.7675 6.00266 14.0726 5.69757Z" fill="#0096D9"/>
</g>
<defs>
<clipPath id="clip0_4005_921">
<rect width="24" height="24" fill="white"/>
</clipPath>
</defs>
</svg>
