<svg width="24" height="24" viewBox="0 0 24 24" fill="none" xmlns="http://www.w3.org/2000/svg">
<path fill-rule="evenodd" clip-rule="evenodd" d="M5 2C3.34314 2 2 3.34315 2 5V15C2 16.6569 3.34315 18 5 18H8.5L11.2 21.6C11.3889 21.8518 11.6852 22 12 22C12.3148 22 12.6111 21.8518 12.8 21.6L15.5 18H19C20.6569 18 22 16.6569 22 15V5C22 3.34315 20.6569 2 19 2H5ZM7 8C7 7.44772 7.44772 7 8 7H16C16.5523 7 17 7.44772 17 8C17 8.55228 16.5523 9 16 9H8C7.44772 9 7 8.55228 7 8ZM8 11C7.44772 11 7 11.4477 7 12C7 12.5523 7.44772 13 8 13H11C11.5523 13 12 12.5523 12 12C12 11.4477 11.5523 11 11 11H8Z" fill="white"/>
</svg>
